<svg width="40" height="40" viewBox="0 0 40 40" fill="none" xmlns="http://www.w3.org/2000/svg">
<path d="M3.33331 26.6667C3.33331 21.9527 3.33331 19.5957 4.79778 18.1312C6.26225 16.6667 8.61927 16.6667 13.3333 16.6667H26.6666C31.3807 16.6667 33.7377 16.6667 35.2022 18.1312C36.6666 19.5957 36.6666 21.9527 36.6666 26.6667C36.6666 31.3808 36.6666 33.7378 35.2022 35.2023C33.7377 36.6668 31.3807 36.6668 26.6666 36.6668H13.3333C8.61927 36.6668 6.26225 36.6668 4.79778 35.2023C3.33331 33.7378 3.33331 31.3808 3.33331 26.6667Z" stroke="white" stroke-width="3"/>
<path opacity="0.5" d="M10 16.6666V13.3333C10 7.8104 14.4772 3.33325 20 3.33325C25.5228 3.33325 30 7.8104 30 13.3333V16.6666" stroke="white" stroke-width="3" stroke-linecap="round"/>
<g opacity="0.5">
<path d="M15 26.6667C15 27.5871 14.2538 28.3333 13.3334 28.3333C12.4129 28.3333 11.6667 27.5871 11.6667 26.6667C11.6667 25.7462 12.4129 25 13.3334 25C14.2538 25 15 25.7462 15 26.6667Z" fill="white"/>
<path d="M21.6667 26.6667C21.6667 27.5871 20.9205 28.3333 20 28.3333C19.0795 28.3333 18.3334 27.5871 18.3334 26.6667C18.3334 25.7462 19.0795 25 20 25C20.9205 25 21.6667 25.7462 21.6667 26.6667Z" fill="white"/>
<path d="M28.3334 26.6667C28.3334 27.5871 27.5872 28.3333 26.6667 28.3333C25.7462 28.3333 25 27.5871 25 26.6667C25 25.7462 25.7462 25 26.6667 25C27.5872 25 28.3334 25.7462 28.3334 26.6667Z" fill="white"/>
</g>
</svg>
