<svg width="40" height="40" viewBox="0 0 40 40" fill="none" xmlns="http://www.w3.org/2000/svg">
<path opacity="0.5" d="M26.6667 6.66675C30.2917 6.68693 32.2549 6.84768 33.5355 8.12832C35 9.59278 35 11.9498 35 16.6639V26.6639C35 31.3779 35 33.7349 33.5355 35.1994C32.0711 36.6639 29.714 36.6639 25 36.6639H15C10.286 36.6639 7.92893 36.6639 6.46447 35.1994C5 33.7349 5 31.3779 5 26.6639V16.6639C5 11.9498 5 9.59278 6.46447 8.12832C7.74511 6.84768 9.70829 6.68693 13.3333 6.66675" stroke="white" stroke-width="3"/>
<path d="M15 22.3333L17.8571 24.9999L25 18.3333" stroke="white" stroke-width="3" stroke-linecap="round" stroke-linejoin="round"/>
<path d="M13.3333 5.83325C13.3333 4.45254 14.4526 3.33325 15.8333 3.33325H24.1666C25.5474 3.33325 26.6666 4.45254 26.6666 5.83325V7.49992C26.6666 8.88063 25.5474 9.99992 24.1666 9.99992H15.8333C14.4526 9.99992 13.3333 8.88063 13.3333 7.49992V5.83325Z" stroke="white" stroke-width="3"/>
</svg>
