<svg width="51" height="50" viewBox="0 0 51 50" fill="none" xmlns="http://www.w3.org/2000/svg">
<path opacity="0.5" d="M42.0417 45.8333V33.3333C42.0417 27.4994 42.0417 24.5825 40.9063 22.3542C39.9076 20.3942 38.3141 18.8007 36.3541 17.802C34.1258 16.6666 31.2089 16.6666 25.375 16.6666C19.5411 16.6666 16.6242 16.6666 14.3959 17.802C12.4359 18.8007 10.8424 20.3942 9.84368 22.3542C8.70833 24.5825 8.70833 27.4994 8.70833 33.3333V45.8333" stroke="#E3181E" stroke-width="3"/>
<path d="M31.625 22.5311C34.1874 22.5311 36.2707 24.5209 36.1772 27.0834" stroke="#E3181E" stroke-width="3" stroke-linecap="round"/>
<path d="M4.54167 45.8334H46.2083" stroke="#E3181E" stroke-width="3" stroke-linecap="round"/>
<path d="M25.375 4.16663V10.4166" stroke="#E3181E" stroke-width="3" stroke-linecap="round"/>
<path d="M44.125 10.4166L41 13.5416" stroke="#E3181E" stroke-width="3" stroke-linecap="round"/>
<path d="M6.625 10.4166L9.75 13.5416" stroke="#E3181E" stroke-width="3" stroke-linecap="round"/>
<path d="M28.5 36.4584C28.5 38.1843 27.1009 39.5834 25.375 39.5834C23.6491 39.5834 22.25 38.1843 22.25 36.4584C22.25 34.7325 23.6491 33.3334 25.375 33.3334C27.1009 33.3334 28.5 34.7325 28.5 36.4584Z" stroke="#E3181E" stroke-width="3"/>
<path opacity="0.5" d="M25.375 39.5834V45.8334" stroke="#E3181E" stroke-width="3" stroke-linecap="round"/>
</svg>
