<svg width="251" height="39" viewBox="0 0 251 39" fill="none" xmlns="http://www.w3.org/2000/svg">
<g clip-path="url(#clip0_4001_296)">
<path fill-rule="evenodd" clip-rule="evenodd" d="M234.785 2.42505L250.435 11.4612L250.447 29.5183L234.803 38.537L219.152 29.5008L219.141 11.4433L234.785 2.42505ZM247.499 13.1498L234.79 5.81311L222.08 13.1402L222.089 27.8118L234.797 35.1489L247.508 27.8214L247.499 13.1498Z" fill="black"/>
<path fill-rule="evenodd" clip-rule="evenodd" d="M43.6019 38.537L27.9512 29.5008L27.9395 11.4433L43.5832 2.42505L59.2343 11.4612L59.2461 29.5183L43.6019 38.537ZM30.8881 27.8118L43.5962 35.1489L56.307 27.8214L56.2975 13.1498L43.5893 5.81311L30.8785 13.1406L30.8881 27.8118Z" fill="#E3181E"/>
<path fill-rule="evenodd" clip-rule="evenodd" d="M3.95383 23.5858V36.2818H0.5V4.84888H13.0784C16.1211 4.84888 18.4909 5.75654 20.2204 7.54747C21.9595 9.34842 22.8301 11.5662 22.8301 14.2174C22.8301 16.8672 21.9443 19.084 20.1742 20.885L20.1725 20.8868C18.4425 22.6786 16.0884 23.5858 13.0784 23.5858H3.95383ZM12.5993 20.5631C14.5392 20.5631 16.1402 19.9857 17.378 18.8149L17.3807 18.8123C18.6176 17.6089 19.2326 16.0697 19.2326 14.2174C19.2326 12.3655 18.618 10.841 17.3794 9.66898C16.142 8.46558 14.5405 7.87151 12.5993 7.87151H3.95383V20.5631H12.5993Z" fill="#E3181E"/>
<path d="M109.616 24.8206C108.908 24.0479 107.995 23.4573 106.885 23.0449C105.824 22.6089 104.627 22.2204 103.293 21.8794C102.002 21.5414 100.711 21.1729 99.4198 20.7735C98.1384 20.3467 96.9655 19.8441 95.9015 19.2665C94.8923 18.703 94.0591 17.9011 93.4019 16.8563C92.7525 15.8236 92.4228 14.5923 92.4228 13.152C92.4228 10.7021 93.3888 8.72477 95.334 7.19995L95.3357 7.19821C97.2882 5.63721 99.7591 4.84888 102.767 4.84888C107.219 4.84888 110.753 6.20863 113.396 8.91071L111.408 11.3354C109.127 8.95295 106.146 7.76654 102.489 7.76654C100.595 7.76654 99.0108 8.24041 97.7547 9.206C96.5212 10.1468 95.8971 11.3915 95.8971 12.9207C95.8971 14.0819 96.3836 15.047 97.3348 15.8005L97.3379 15.8031C98.2948 16.5361 99.4533 17.0736 100.807 17.4199H100.808C102.158 17.7574 103.617 18.1873 105.186 18.7095L105.192 18.7112C106.787 19.2021 108.243 19.7382 109.56 20.3197L109.563 20.321L109.566 20.3223C110.877 20.858 111.965 21.7356 112.834 22.963L112.836 22.9665C113.726 24.1812 114.175 25.6533 114.175 27.3955C114.175 29.8523 113.265 31.929 111.433 33.6394L111.431 33.6411C109.646 35.3358 106.868 36.2078 103.044 36.2078C98.1881 36.2078 94.3588 34.6485 91.5273 31.5462L93.4812 29.0358C96.114 31.8685 99.3531 33.2901 103.183 33.2901C105.709 33.2901 107.619 32.7613 108.858 31.6533L108.861 31.6507C110.078 30.5305 110.701 29.2173 110.701 27.7195C110.701 26.5823 110.341 25.6107 109.616 24.8206Z" fill="#E3181E"/>
<path fill-rule="evenodd" clip-rule="evenodd" d="M68.0574 23.5858V36.2818H64.6035V4.84888H77.1819C80.097 4.84888 82.4402 5.70907 84.2364 7.41206C86.0295 9.1124 86.9337 11.3716 86.9337 14.2174C86.9337 16.9103 86.1523 19.0274 84.6127 20.598C83.0608 22.1807 81.1558 23.0644 78.8853 23.2513L78.4445 23.2874L87.0439 36.2818H82.9781L74.8335 23.5858H68.0574ZM76.7028 7.87151C78.644 7.87151 80.2455 8.46558 81.4829 9.66898C82.7215 10.841 83.3361 12.3655 83.3361 14.2174C83.3361 16.0697 82.7211 17.6089 81.4842 18.8123C80.2468 20.0161 78.6445 20.6111 76.7028 20.6111H68.0574V7.87151H76.7028Z" fill="#E3181E"/>
<path fill-rule="evenodd" clip-rule="evenodd" d="M166.847 24.2108V36.9068H163.393V5.47388H175.971C179.014 5.47388 181.384 6.38154 183.113 8.17292C184.852 9.97388 185.723 12.1912 185.723 14.8423C185.723 17.4922 184.837 19.7091 183.067 21.51L183.065 21.5118C181.335 23.3036 178.981 24.2108 175.971 24.2108H166.847ZM175.492 21.1882C177.432 21.1882 179.033 20.6111 180.271 19.4399L180.273 19.4373C181.51 18.2339 182.125 16.6947 182.125 14.8423C182.125 12.9904 181.511 11.4665 180.272 10.294C179.035 9.0906 177.433 8.49653 175.492 8.49653H166.847V21.1882H175.492Z" fill="black"/>
<path fill-rule="evenodd" clip-rule="evenodd" d="M194.966 24.2108V36.9068H191.512V5.47388H204.09C207.005 5.47388 209.348 6.33407 211.145 8.03703C212.938 9.73738 213.842 11.9965 213.842 14.8423C213.842 17.5357 213.061 19.6524 211.521 21.223C209.969 22.8058 208.064 23.6899 205.793 23.8763L205.353 23.9125L213.952 36.9068H209.886L201.741 24.2108H194.966ZM203.611 8.49653C205.552 8.49653 207.154 9.0906 208.391 10.294C209.63 11.466 210.244 12.9904 210.244 14.8423C210.244 16.6947 209.629 18.2339 208.392 19.4373C207.155 20.6416 205.553 21.2361 203.611 21.2361H194.966V8.49653H203.611Z" fill="black"/>
<path d="M155.662 22.569C155.246 22.9841 154.751 23.1919 154.176 23.1919C153.601 23.1919 153.106 22.9841 152.691 22.569C152.276 22.1217 152.068 21.6108 152.068 21.0359C152.068 20.4928 152.276 20.0137 152.691 19.5987C153.106 19.1836 153.601 18.9758 154.176 18.9758C154.751 18.9758 155.246 19.1836 155.662 19.5987C156.109 20.0137 156.332 20.4928 156.332 21.0359C156.332 21.6108 156.109 22.1217 155.662 22.569Z" fill="black"/>
<path d="M121.004 33.0868L133.993 8.14868L146.949 33.0259L134.833 27.6016L134.219 27.3264L133.601 27.5955L121.004 33.0868Z" stroke="#E3181E" stroke-width="2.6"/>
<path d="M224.584 15.8591L236.234 9.13306" stroke="black" stroke-width="1.7561"/>
<path d="M53.8024 25.1028L42.1522 31.8288" stroke="#E3181E" stroke-width="1.7561"/>
</g>
<defs>
<clipPath id="clip0_4001_296">
<rect width="250" height="36.1498" fill="white" transform="translate(0.5 2.42505)"/>
</clipPath>
</defs>
</svg>
