<svg width="51" height="50" viewBox="0 0 51 50" fill="none" xmlns="http://www.w3.org/2000/svg">
<path d="M4.79167 12.5001C4.79167 9.58314 4.79167 8.12467 5.35935 7.01055C5.85869 6.03054 6.65546 5.23376 7.63547 4.73442C8.7496 4.16675 10.2081 4.16675 13.125 4.16675C16.0419 4.16675 17.5004 4.16675 18.6145 4.73442C19.5946 5.23376 20.3913 6.03054 20.8907 7.01055C21.4583 8.12467 21.4583 9.58314 21.4583 12.5001V37.5001C21.4583 40.417 21.4583 41.8755 20.8907 42.9896C20.3913 43.9696 19.5946 44.7664 18.6145 45.2657C17.5004 45.8334 16.0419 45.8334 13.125 45.8334C10.2081 45.8334 8.7496 45.8334 7.63547 45.2657C6.65546 44.7664 5.85869 43.9696 5.35935 42.9896C4.79167 41.8755 4.79167 40.417 4.79167 37.5001V12.5001Z" stroke="#E3181E" stroke-width="3"/>
<path opacity="0.5" d="M15.2083 39.5833H11.0417" stroke="#E3181E" stroke-width="3" stroke-linecap="round"/>
<path d="M28.3618 10.2689L23.8991 14.7316C22.6948 15.9359 22.0927 16.538 21.7755 17.3037C21.4583 18.0694 21.4583 18.921 21.4583 20.6241L21.4583 40.7426L40.1469 22.054C42.2095 19.9914 43.2408 18.9601 43.6272 17.7709C43.9671 16.7248 43.9671 15.598 43.6272 14.552C43.2408 13.3628 42.2095 12.3315 40.1469 10.2689C38.0843 8.2063 37.053 7.175 35.8638 6.78861C34.8178 6.44872 33.6909 6.44872 32.6449 6.78861C31.4557 7.175 30.4244 8.2063 28.3618 10.2689Z" stroke="#E3181E" stroke-width="3"/>
<path opacity="0.5" d="M13.125 45.8334L38.125 45.8334C41.0419 45.8334 42.5004 45.8334 43.6145 45.2657C44.5945 44.7664 45.3913 43.9696 45.8907 42.9896C46.4583 41.8755 46.4583 40.417 46.4583 37.5001C46.4583 34.5831 46.4583 33.1247 45.8907 32.0105C45.3913 31.0305 44.5945 30.2338 43.6145 29.7344C42.5004 29.1667 41.0419 29.1667 38.125 29.1667L32.9167 29.1667" stroke="#E3181E" stroke-width="3"/>
</svg>
