<svg width="40" height="40" viewBox="0 0 40 40" fill="none" xmlns="http://www.w3.org/2000/svg">
<path d="M3.33331 20.0001C3.33331 13.7147 3.33331 10.572 5.28593 8.61937C7.23856 6.66675 10.3813 6.66675 16.6666 6.66675H23.3333C29.6187 6.66675 32.7614 6.66675 34.714 8.61937C36.6666 10.572 36.6666 13.7147 36.6666 20.0001V23.3334C36.6666 29.6188 36.6666 32.7615 34.714 34.7141C32.7614 36.6667 29.6187 36.6667 23.3333 36.6667H16.6666C10.3813 36.6667 7.23856 36.6667 5.28593 34.7141C3.33331 32.7615 3.33331 29.6188 3.33331 23.3334V20.0001Z" stroke="white" stroke-width="3"/>
<path opacity="0.5" d="M11.6667 6.66675V4.16675" stroke="white" stroke-width="3" stroke-linecap="round"/>
<path opacity="0.5" d="M28.3333 6.66675V4.16675" stroke="white" stroke-width="3" stroke-linecap="round"/>
<path opacity="0.5" d="M4.16669 15H35.8334" stroke="white" stroke-width="3" stroke-linecap="round"/>
<path d="M30 28.3333C30 29.2538 29.2538 30 28.3334 30C27.4129 30 26.6667 29.2538 26.6667 28.3333C26.6667 27.4129 27.4129 26.6667 28.3334 26.6667C29.2538 26.6667 30 27.4129 30 28.3333Z" fill="white"/>
<path d="M30 21.6667C30 22.5871 29.2538 23.3333 28.3334 23.3333C27.4129 23.3333 26.6667 22.5871 26.6667 21.6667C26.6667 20.7462 27.4129 20 28.3334 20C29.2538 20 30 20.7462 30 21.6667Z" fill="white"/>
<path d="M21.6666 28.3333C21.6666 29.2538 20.9205 30 20 30C19.0795 30 18.3333 29.2538 18.3333 28.3333C18.3333 27.4129 19.0795 26.6667 20 26.6667C20.9205 26.6667 21.6666 27.4129 21.6666 28.3333Z" fill="white"/>
<path d="M21.6666 21.6667C21.6666 22.5871 20.9205 23.3333 20 23.3333C19.0795 23.3333 18.3333 22.5871 18.3333 21.6667C18.3333 20.7462 19.0795 20 20 20C20.9205 20 21.6666 20.7462 21.6666 21.6667Z" fill="white"/>
<path d="M13.3333 28.3333C13.3333 29.2538 12.5871 30 11.6667 30C10.7462 30 10 29.2538 10 28.3333C10 27.4129 10.7462 26.6667 11.6667 26.6667C12.5871 26.6667 13.3333 27.4129 13.3333 28.3333Z" fill="white"/>
<path d="M13.3333 21.6667C13.3333 22.5871 12.5871 23.3333 11.6667 23.3333C10.7462 23.3333 10 22.5871 10 21.6667C10 20.7462 10.7462 20 11.6667 20C12.5871 20 13.3333 20.7462 13.3333 21.6667Z" fill="white"/>
</svg>
