<svg width="220" height="32" viewBox="0 0 220 32" fill="none" xmlns="http://www.w3.org/2000/svg">
<g clip-path="url(#clip0_4001_1190)">
<path fill-rule="evenodd" clip-rule="evenodd" d="M206.173 0.0939941L219.946 8.04581L219.956 23.936L206.189 31.8725L192.417 23.9207L192.406 8.03009L206.173 0.0939941ZM217.361 9.53176L206.178 3.07549L194.993 9.52333L195.001 22.4343L206.184 28.891L217.37 22.4428L217.361 9.53176Z" fill="#E3181E"/>
<path fill-rule="evenodd" clip-rule="evenodd" d="M37.9314 31.8725L24.1588 23.9207L24.1484 8.03009L37.9149 0.0939941L51.6879 8.04581L51.6983 23.936L37.9314 31.8725ZM26.7432 22.4343L37.9264 28.891L49.1119 22.4428L49.1035 9.53176L37.9203 3.07549L26.7348 9.52372L26.7432 22.4343Z" fill="black"/>
<path fill-rule="evenodd" clip-rule="evenodd" d="M3.03937 18.7153V29.8878H0V2.22681H11.069C13.7465 2.22681 15.832 3.02555 17.3539 4.60156C18.8844 6.18641 19.6505 8.13808 19.6505 10.4711C19.6505 12.8029 18.8709 14.7538 17.3133 16.3386L17.3118 16.3401C15.7894 17.9169 13.7178 18.7153 11.069 18.7153H3.03937ZM10.6474 16.0554C12.3545 16.0554 13.7634 15.5472 14.8527 14.5169L14.855 14.5146C15.9435 13.4556 16.4847 12.1012 16.4847 10.4711C16.4847 8.84139 15.9439 7.49989 14.8538 6.4685C13.7649 5.40951 12.3556 4.88672 10.6474 4.88672H3.03937V16.0554H10.6474Z" fill="black"/>
<path d="M96.0197 19.8019C95.3962 19.122 94.5928 18.6022 93.6162 18.2393C92.683 17.8556 91.629 17.5137 90.4554 17.2136C89.3193 16.9162 88.1833 16.5919 87.0469 16.2405C85.9193 15.8649 84.8871 15.4226 83.9508 14.9144C83.0627 14.4184 82.3295 13.7128 81.7512 12.7933C81.1797 11.8846 80.8896 10.801 80.8896 9.53355C80.8896 7.37763 81.7397 5.6376 83.4514 4.29575L83.4529 4.29422C85.1711 2.92054 87.3455 2.22681 89.9924 2.22681C93.9106 2.22681 97.0205 3.42339 99.3462 5.80122L97.5962 7.93491C95.5893 5.83839 92.9662 4.79435 89.7478 4.79435C88.0814 4.79435 86.687 5.21136 85.5816 6.06108C84.4962 6.88895 83.947 7.98435 83.947 9.33003C83.947 10.3518 84.3751 11.2012 85.2122 11.8642L85.2148 11.8665C86.0569 12.5116 87.0764 12.9846 88.2676 13.2893H88.2688C89.4569 13.5863 90.7409 13.9646 92.1211 14.4241L92.1261 14.4257C93.5304 14.8576 94.8117 15.3294 95.9699 15.8411L95.9726 15.8423L95.9757 15.8434C97.129 16.3148 98.0868 17.0871 98.851 18.1672L98.8533 18.1703C99.6359 19.2392 100.032 20.5347 100.032 22.0678C100.032 24.2299 99.2304 26.0574 97.6184 27.5625L97.6169 27.564C96.0462 29.0553 93.6017 29.8226 90.2365 29.8226C85.963 29.8226 82.5932 28.4505 80.1016 25.7204L81.8209 23.5113C84.1378 26.0041 86.9882 27.2551 90.3588 27.2551C92.5818 27.2551 94.2624 26.7898 95.3529 25.8147L95.3552 25.8124C96.426 24.8266 96.9741 23.671 96.9741 22.353C96.9741 21.3522 96.6575 20.4972 96.0197 19.8019Z" fill="black"/>
<path fill-rule="evenodd" clip-rule="evenodd" d="M59.4495 18.7153V29.8878H56.4102V2.22681H67.4791C70.0444 2.22681 72.1064 2.98378 73.6871 4.4824C75.265 5.97871 76.0607 7.96676 76.0607 10.4711C76.0607 12.8409 75.3731 14.7039 74.0182 16.086C72.6526 17.4788 70.9761 18.2565 68.9781 18.4209L68.5903 18.4527L76.1577 29.8878H72.5798L65.4125 18.7153H59.4495ZM67.0575 4.88672C68.7658 4.88672 70.1751 5.40951 71.264 6.4685C72.354 7.49989 72.8948 8.84139 72.8948 10.4711C72.8948 12.1012 72.3536 13.4556 71.2651 14.5146C70.1763 15.574 68.7662 16.0975 67.0575 16.0975H59.4495V4.88672H67.0575Z" fill="black"/>
<path d="M146.383 19.1198H146.237V19.2661V30.2922H143.49V2.92393H154.413C157.059 2.92393 159.103 3.71222 160.592 5.25439L160.698 5.15274L160.592 5.2544C162.095 6.81036 162.848 8.72449 162.848 11.0218C162.848 13.3172 162.082 15.2307 160.553 16.7868L160.552 16.7875L160.552 16.7875L160.55 16.7893C159.061 18.3321 157.03 19.1198 154.413 19.1198H146.383ZM158.297 15.174L158.297 15.174L158.3 15.171L158.302 15.1695C159.42 14.0806 159.975 12.6873 159.975 11.0218C159.975 9.35673 159.421 7.97591 158.299 6.91367C157.179 5.82474 155.731 5.29118 153.991 5.29118H146.383H146.237V5.43752V16.6062V16.7525H146.383H153.991C155.729 16.7525 157.176 16.2344 158.297 15.174Z" fill="#E3181E" stroke="#E3181E" stroke-width="0.292683"/>
<path d="M171.129 19.1198H170.983V19.2661V30.2922H168.236V2.92393H179.159C181.693 2.92393 183.717 3.67071 185.266 5.13936C186.811 6.6041 187.594 8.55159 187.594 11.0218C187.594 13.362 186.916 15.1851 185.593 16.5344C184.253 17.9014 182.61 18.6646 180.645 18.8259L180.258 18.8577L180.011 18.8779L180.148 19.0843L187.565 30.2922H184.339L177.215 19.1871L177.172 19.1198H177.092H171.129ZM170.983 16.6483V16.7947H171.129H178.737C180.478 16.7947 181.926 16.2605 183.047 15.1703C184.166 14.0813 184.721 12.6877 184.721 11.0218C184.721 9.35676 184.167 7.97554 183.045 6.91367C181.925 5.82474 180.477 5.29118 178.737 5.29118H171.129H170.983V5.43752V16.6483Z" fill="#E3181E" stroke="#E3181E" stroke-width="0.292683"/>
<path d="M136.545 17.8205C136.18 18.1857 135.744 18.3686 135.238 18.3686C134.732 18.3686 134.296 18.1857 133.931 17.8205C133.566 17.4268 133.383 16.9773 133.383 16.4713C133.383 15.9934 133.566 15.5718 133.931 15.2065C134.296 14.8413 134.732 14.6584 135.238 14.6584C135.744 14.6584 136.18 14.8413 136.545 15.2065C136.938 15.5718 137.135 15.9934 137.135 16.4713C137.135 16.9773 136.938 17.4268 136.545 17.8205Z" fill="black"/>
<path d="M106.043 27.0767L117.473 5.1311L128.875 27.023L118.213 22.2497L117.672 22.0075L117.128 22.2443L106.043 27.0767Z" stroke="black" stroke-width="2.4"/>
<path d="M197.195 11.9153L207.448 5.99634L197.195 11.9153Z" fill="#E3181E"/>
<path d="M197.195 11.9153L207.448 5.99634" stroke="#E3181E" stroke-width="1.7561"/>
<path d="M46.9084 20.051L36.6562 25.9699L46.9084 20.051Z" fill="black"/>
<path d="M46.9084 20.051L36.6562 25.9699" stroke="black" stroke-width="1.7561"/>
</g>
<defs>
<clipPath id="clip0_4001_1190">
<rect width="220" height="31.8118" fill="white" transform="translate(0 0.0939941)"/>
</clipPath>
</defs>
</svg>
