<svg width="24" height="24" viewBox="0 0 24 24" fill="none" xmlns="http://www.w3.org/2000/svg">
<path d="M22.875 2.625H1.125C1.02554 2.625 0.93016 2.66451 0.859832 2.73483C0.789509 2.80516 0.75 2.90054 0.75 3V6C0.75 6.09946 0.789509 6.19484 0.859832 6.26517C0.93016 6.33549 1.02554 6.375 1.125 6.375V19.875C1.125 19.9745 1.16451 20.0698 1.23483 20.1402C1.30516 20.2105 1.40054 20.25 1.5 20.25H3C3.09946 20.25 3.19484 20.2105 3.26517 20.1402C3.33549 20.0698 3.375 19.9745 3.375 19.875V6.375H12V19.5C12 19.5994 12.0395 19.6948 12.1098 19.7652C12.1802 19.8355 12.2755 19.875 12.375 19.875H22.125C22.2245 19.875 22.3198 19.8355 22.3902 19.7652C22.4605 19.6948 22.5 19.5994 22.5 19.5V6.375H22.875C22.9745 6.375 23.0698 6.33549 23.1402 6.26517C23.2105 6.19484 23.25 6.09946 23.25 6V3C23.25 2.90054 23.2105 2.80516 23.1402 2.73483C23.0698 2.66451 22.9745 2.625 22.875 2.625ZM2.625 19.5H1.875V6.375H2.625V19.5ZM21.75 19.125H12.75V6.375H21.75V19.125ZM22.5 5.625H1.5V3.375H22.5V5.625Z" fill="#485055"/>
<path d="M13.875 18.375H20.625C20.7245 18.375 20.8198 18.3355 20.8902 18.2652C20.9605 18.1948 21 18.0994 21 18V7.5C21 7.40054 20.9605 7.30516 20.8902 7.23483C20.8198 7.16451 20.7245 7.125 20.625 7.125H13.875C13.7755 7.125 13.6802 7.16451 13.6098 7.23483C13.5395 7.30516 13.5 7.40054 13.5 7.5V18C13.5 18.0994 13.5395 18.1948 13.6098 18.2652C13.6802 18.3355 13.7755 18.375 13.875 18.375ZM20.25 17.625H14.25V10.5H20.25V17.625ZM14.25 7.875H20.25V9.75H14.25V7.875Z" fill="#485055"/>
<path d="M15 13.5H15.75V15H15V13.5Z" fill="#485055"/>
<path d="M16.125 8.25H18.3751V9H16.125V8.25Z" fill="#485055"/>
</svg>
