<svg width="51" height="50" viewBox="0 0 51 50" fill="none" xmlns="http://www.w3.org/2000/svg">
<path opacity="0.5" d="M33.7083 8.33337C38.2396 8.3586 40.6936 8.55954 42.2944 10.1603C44.125 11.9909 44.125 14.9372 44.125 20.8298V33.3298C44.125 39.2223 44.125 42.1686 42.2944 43.9992C40.4638 45.8298 37.5176 45.8298 31.625 45.8298H19.125C13.2324 45.8298 10.2862 45.8298 8.45558 43.9992C6.625 42.1686 6.625 39.2223 6.625 33.3298V20.8298C6.625 14.9372 6.625 11.9909 8.45558 10.1603C10.0564 8.55954 12.5104 8.3586 17.0417 8.33337" stroke="#E3181E" stroke-width="3"/>
<path d="M19.125 27.9166L22.6964 31.25L31.625 22.9166" stroke="#E3181E" stroke-width="3" stroke-linecap="round" stroke-linejoin="round"/>
<path d="M17.0417 7.29163C17.0417 5.56574 18.4408 4.16663 20.1667 4.16663H30.5833C32.3092 4.16663 33.7083 5.56574 33.7083 7.29163V9.37496C33.7083 11.1008 32.3092 12.5 30.5833 12.5H20.1667C18.4408 12.5 17.0417 11.1008 17.0417 9.37496V7.29163Z" stroke="#E3181E" stroke-width="3"/>
</svg>
