<svg width="51" height="50" viewBox="0 0 51 50" fill="none" xmlns="http://www.w3.org/2000/svg">
<path opacity="0.5" d="M34.2083 8.33691C38.7396 8.36214 41.1936 8.56308 42.7944 10.1639C44.625 11.9945 44.625 14.9407 44.625 20.8333V33.3333C44.625 39.2259 44.625 42.1721 42.7944 44.0027C40.9638 45.8333 38.0176 45.8333 32.125 45.8333H19.625C13.7324 45.8333 10.7862 45.8333 8.95558 44.0027C7.125 42.1721 7.125 39.2259 7.125 33.3333V20.8333C7.125 14.9407 7.125 11.9945 8.95558 10.1639C10.5564 8.56308 13.0104 8.36214 17.5417 8.33691" stroke="#E3181E" stroke-width="3"/>
<path d="M22.75 29.1667H36.2917" stroke="#E3181E" stroke-width="3" stroke-linecap="round"/>
<path d="M15.4583 29.1667H16.5" stroke="#E3181E" stroke-width="3" stroke-linecap="round"/>
<path d="M15.4583 21.875H16.5" stroke="#E3181E" stroke-width="3" stroke-linecap="round"/>
<path d="M15.4583 36.4583H16.5" stroke="#E3181E" stroke-width="3" stroke-linecap="round"/>
<path d="M22.75 21.875H36.2917" stroke="#E3181E" stroke-width="3" stroke-linecap="round"/>
<path d="M22.75 36.4583H36.2917" stroke="#E3181E" stroke-width="3" stroke-linecap="round"/>
<path d="M17.5417 7.29175C17.5417 5.56586 18.9408 4.16675 20.6667 4.16675H31.0834C32.8092 4.16675 34.2084 5.56586 34.2084 7.29175V9.37508C34.2084 11.101 32.8092 12.5001 31.0834 12.5001H20.6667C18.9408 12.5001 17.5417 11.101 17.5417 9.37508V7.29175Z" stroke="#E3181E" stroke-width="3"/>
</svg>
