<svg width="19" height="16" viewBox="0 0 19 16" fill="none" xmlns="http://www.w3.org/2000/svg">
<path d="M18.2806 8.53068L11.5306 15.2807C11.3899 15.4214 11.199 15.5005 11 15.5005C10.801 15.5005 10.6101 15.4214 10.4694 15.2807C10.3286 15.1399 10.2496 14.9491 10.2496 14.7501C10.2496 14.551 10.3286 14.3602 10.4694 14.2194L15.9397 8.75005H1.25C1.05109 8.75005 0.860322 8.67103 0.71967 8.53038C0.579018 8.38973 0.5 8.19896 0.5 8.00005C0.5 7.80114 0.579018 7.61037 0.71967 7.46972C0.860322 7.32907 1.05109 7.25005 1.25 7.25005H15.9397L10.4694 1.78068C10.3286 1.63995 10.2496 1.44907 10.2496 1.25005C10.2496 1.05103 10.3286 0.860156 10.4694 0.719426C10.6101 0.578695 10.801 0.499634 11 0.499634C11.199 0.499634 11.3899 0.578695 11.5306 0.719426L18.2806 7.46943C18.3504 7.53908 18.4057 7.6218 18.4434 7.71285C18.4812 7.80389 18.5006 7.90149 18.5006 8.00005C18.5006 8.09861 18.4812 8.19621 18.4434 8.28726C18.4057 8.3783 18.3504 8.46102 18.2806 8.53068Z" fill="white"/>
</svg>
