<svg width="51" height="50" viewBox="0 0 51 50" fill="none" xmlns="http://www.w3.org/2000/svg">
<circle cx="25.125" cy="25" r="20.8333" stroke="#E3181E" stroke-width="3"/>
<path opacity="0.5" d="M12.625 9.81364C14.2505 11.2939 17.5991 15.34 17.9892 19.6821C18.3538 23.7407 21.0327 27.0387 25.125 27.0834C26.6977 27.1005 28.2882 25.9644 28.2842 24.3916C28.2829 23.9053 28.2026 23.408 28.077 22.9506C27.9023 22.3143 27.8868 21.5822 28.25 20.8334C29.5206 18.2137 32.0196 17.51 33.9997 16.0872C34.8779 15.4563 35.6791 14.7906 36.0323 14.2544C37.0076 12.7742 37.9829 9.81364 37.4953 8.33337" stroke="#E3181E" stroke-width="3"/>
<path opacity="0.5" d="M45.9583 27.0834C45.2721 29.023 44.7864 34.1146 37.038 34.1954C37.038 34.1954 30.1762 34.1954 28.1176 38.0748C26.4708 41.1782 27.4314 44.5403 28.1176 45.8334" stroke="#E3181E" stroke-width="3"/>
</svg>
