<svg width="51" height="50" viewBox="0 0 51 50" fill="none" xmlns="http://www.w3.org/2000/svg">
<path d="M21.1254 16.4523C23.3684 12.4285 24.4899 10.4166 26.1667 10.4166C27.8434 10.4166 28.9649 12.4285 31.2079 16.4523L31.7882 17.4933C32.4256 18.6367 32.7443 19.2084 33.2413 19.5857C33.7382 19.9629 34.357 20.1029 35.5948 20.383L36.7217 20.6379C41.0773 21.6234 43.2552 22.1162 43.7733 23.7824C44.2915 25.4486 42.8068 27.1848 39.8373 30.6571L39.0691 31.5555C38.2253 32.5422 37.8034 33.0356 37.6136 33.6459C37.4238 34.2563 37.4876 34.9145 37.6151 36.231L37.7313 37.4296C38.1802 42.0625 38.4047 44.3789 37.0482 45.4087C35.6917 46.4384 33.6526 45.4996 29.5743 43.6218L28.5193 43.136C27.3604 42.6024 26.7809 42.3356 26.1667 42.3356C25.5525 42.3356 24.973 42.6024 23.8141 43.136L22.759 43.6218C18.6808 45.4996 16.6417 46.4384 15.2852 45.4087C13.9287 44.3789 14.1531 42.0625 14.6021 37.4296L14.7182 36.231C14.8458 34.9145 14.9096 34.2563 14.7198 33.6459C14.53 33.0356 14.1081 32.5422 13.2642 31.5555L12.496 30.6571C9.5266 27.1848 8.04189 25.4486 8.56003 23.7824C9.07817 22.1162 11.256 21.6234 15.6117 20.6379L16.7386 20.383C17.9763 20.1029 18.5952 19.9629 19.0921 19.5857C19.589 19.2084 19.9077 18.6367 20.5451 17.4933L21.1254 16.4523Z" stroke="#E3181E" stroke-width="3"/>
<path opacity="0.55" d="M10.5205 4.16663C10.5205 4.16663 11.1204 7.20353 12.4356 8.50986C13.7508 9.81618 16.7917 10.3955 16.7917 10.3955C16.7917 10.3955 13.7548 10.9954 12.4484 12.3106C11.1421 13.6257 10.5628 16.6666 10.5628 16.6666C10.5628 16.6666 9.96291 13.6297 8.64773 12.3234C7.33254 11.0171 4.29166 10.4377 4.29166 10.4377C4.29166 10.4377 7.32856 9.83788 8.63489 8.5227C9.94121 7.20751 10.5205 4.16663 10.5205 4.16663Z" stroke="#E3181E" stroke-width="2" stroke-linejoin="round"/>
<path opacity="0.55" d="M37.625 10.4167H41.7917M39.7083 12.5L39.7083 8.33337" stroke="#E3181E" stroke-width="3" stroke-linecap="round"/>
</svg>
