<svg width="51" height="50" viewBox="0 0 51 50" fill="none" xmlns="http://www.w3.org/2000/svg">
<path opacity="0.5" d="M37.875 20.8334H27.4583" stroke="#E3181E" stroke-width="3" stroke-linecap="round"/>
<path opacity="0.5" d="M21.2083 6.25H34.75C35.7175 6.25 36.2013 6.25 36.6075 6.30347C39.412 6.6727 41.619 8.87963 41.9882 11.6842C42.0417 12.0904 42.0417 12.5741 42.0417 13.5417" stroke="#E3181E" stroke-width="3"/>
<path d="M4.54167 14.4786C4.54167 12.64 4.54167 11.7207 4.68615 10.9549C5.32217 7.58394 7.95898 4.94713 11.33 4.31111C12.0957 4.16663 13.015 4.16663 14.8536 4.16663C15.6592 4.16663 16.062 4.16663 16.4491 4.20282C18.118 4.35889 19.7011 5.01462 20.9916 6.08437C21.2909 6.33249 21.5757 6.6173 22.1453 7.18693L23.2917 8.33329C24.9912 10.0328 25.841 10.8826 26.8586 11.4488C27.4176 11.7598 28.0105 12.0054 28.6257 12.1807C29.7456 12.5 30.9474 12.5 33.3509 12.5H34.1294C39.6135 12.5 42.3555 12.5 44.1379 14.103C44.3018 14.2505 44.4578 14.4065 44.6053 14.5704C46.2083 16.3528 46.2083 19.0948 46.2083 24.5789V29.1666C46.2083 37.0234 46.2083 40.9517 43.7676 43.3925C41.3268 45.8333 37.3984 45.8333 29.5417 45.8333H21.2083C13.3516 45.8333 9.42323 45.8333 6.98245 43.3925C4.54167 40.9517 4.54167 37.0234 4.54167 29.1666V14.4786Z" stroke="#E3181E" stroke-width="3"/>
</svg>
