<svg width="51" height="50" viewBox="0 0 51 50" fill="none" xmlns="http://www.w3.org/2000/svg">
<path d="M6.81584 13.8262L20.7557 7.29094C23.7161 5.90302 27.0337 5.90302 29.9942 7.29094L43.9342 13.8263C46.9664 15.2479 46.9664 20.1689 43.9342 21.5904L29.9943 28.1257C27.0339 29.5136 23.7163 29.5136 20.7558 28.1257L10.7917 23.4543" stroke="#E3181E" stroke-width="3" stroke-linecap="round"/>
<path opacity="0.5" d="M5.58333 31.25V25.2866C5.58333 22.6215 5.58333 21.289 6.27149 20.2454C6.95965 19.2018 8.18444 18.6769 10.634 17.6271L12.875 16.6666" stroke="#E3181E" stroke-width="3" stroke-linecap="round" stroke-linejoin="round"/>
<path opacity="0.5" d="M39.9583 23.9584V34.6363C39.9583 36.7364 38.9094 38.7026 37.0722 39.72C34.0131 41.4141 29.1167 43.75 25.375 43.75C21.6333 43.75 16.7369 41.4141 13.6778 39.72C11.8406 38.7026 10.7917 36.7364 10.7917 34.6363V23.9584" stroke="#E3181E" stroke-width="3" stroke-linecap="round"/>
</svg>
