<svg width="51" height="50" viewBox="0 0 51 50" fill="none" xmlns="http://www.w3.org/2000/svg">
<path opacity="0.5" d="M7.58324 35.4161C13.3362 45.3805 26.0777 48.7946 36.0421 43.0416C40.1038 40.6966 43.0771 37.1904 44.7848 33.1845C47.2667 27.3627 47.0756 20.4855 43.6676 14.5827C40.2597 8.67999 34.3993 5.07587 28.1167 4.31433C23.7935 3.79031 19.2704 4.6122 15.2088 6.95721C5.24434 12.7102 1.83027 25.4516 7.58324 35.4161Z" stroke="#E3181E" stroke-width="3"/>
<path d="M32.9167 29.6874C32.9167 31.1257 31.7507 32.2916 30.3125 32.2916C28.8743 32.2916 27.7083 31.1257 27.7083 29.6874C27.7083 28.2492 28.8743 27.0833 30.3125 27.0833C31.7507 27.0833 32.9167 28.2492 32.9167 29.6874Z" stroke="#E3181E" stroke-width="2"/>
<path d="M32.9167 20.3124C32.9167 21.7507 31.7507 22.9166 30.3125 22.9166C28.8743 22.9166 27.7083 21.7507 27.7083 20.3124C27.7083 18.8742 28.8743 17.7083 30.3125 17.7083C31.7507 17.7083 32.9167 18.8742 32.9167 20.3124Z" stroke="#E3181E" stroke-width="2"/>
<path d="M23.5417 29.6874C23.5417 31.1257 22.3757 32.2916 20.9375 32.2916C19.4993 32.2916 18.3333 31.1257 18.3333 29.6874C18.3333 28.2492 19.4993 27.0833 20.9375 27.0833C22.3757 27.0833 23.5417 28.2492 23.5417 29.6874Z" stroke="#E3181E" stroke-width="2"/>
<path d="M23.5417 20.3124C23.5417 21.7507 22.3757 22.9166 20.9375 22.9166C19.4993 22.9166 18.3333 21.7507 18.3333 20.3124C18.3333 18.8742 19.4993 17.7083 20.9375 17.7083C22.3757 17.7083 23.5417 18.8742 23.5417 20.3124Z" stroke="#E3181E" stroke-width="2"/>
<path d="M31.875 38.0208C31.875 38.8837 31.1754 39.5833 30.3125 39.5833C29.4496 39.5833 28.75 38.8837 28.75 38.0208C28.75 37.1578 29.4496 36.4583 30.3125 36.4583C31.1754 36.4583 31.875 37.1578 31.875 38.0208Z" fill="#E3181E"/>
<path d="M22.5 38.0208C22.5 38.8837 21.8004 39.5833 20.9375 39.5833C20.0746 39.5833 19.375 38.8837 19.375 38.0208C19.375 37.1578 20.0746 36.4583 20.9375 36.4583C21.8004 36.4583 22.5 37.1578 22.5 38.0208Z" fill="#E3181E"/>
<path d="M31.875 38.0208C31.875 38.8837 31.1754 39.5833 30.3125 39.5833C29.4496 39.5833 28.75 38.8837 28.75 38.0208C28.75 37.1578 29.4496 36.4583 30.3125 36.4583C31.1754 36.4583 31.875 37.1578 31.875 38.0208Z" fill="#E3181E"/>
<path d="M31.875 11.9792C31.875 12.8422 31.1754 13.5417 30.3125 13.5417C29.4496 13.5417 28.75 12.8422 28.75 11.9792C28.75 11.1163 29.4496 10.4167 30.3125 10.4167C31.1754 10.4167 31.875 11.1163 31.875 11.9792Z" fill="#E3181E"/>
<path d="M22.5 38.0208C22.5 38.8837 21.8004 39.5833 20.9375 39.5833C20.0746 39.5833 19.375 38.8837 19.375 38.0208C19.375 37.1578 20.0746 36.4583 20.9375 36.4583C21.8004 36.4583 22.5 37.1578 22.5 38.0208Z" fill="#E3181E"/>
<path d="M22.5 11.9792C22.5 12.8422 21.8004 13.5417 20.9375 13.5417C20.0746 13.5417 19.375 12.8422 19.375 11.9792C19.375 11.1163 20.0746 10.4167 20.9375 10.4167C21.8004 10.4167 22.5 11.1163 22.5 11.9792Z" fill="#E3181E"/>
<path d="M38.6458 18.75C39.5088 18.75 40.2083 19.4496 40.2083 20.3125C40.2083 21.1754 39.5088 21.875 38.6458 21.875C37.7829 21.875 37.0833 21.1754 37.0833 20.3125C37.0833 19.4496 37.7829 18.75 38.6458 18.75Z" fill="#E3181E"/>
<path d="M12.6042 18.75C13.4671 18.75 14.1667 19.4496 14.1667 20.3125C14.1667 21.1754 13.4671 21.875 12.6042 21.875C11.7412 21.875 11.0417 21.1754 11.0417 20.3125C11.0417 19.4496 11.7412 18.75 12.6042 18.75Z" fill="#E3181E"/>
<path d="M38.6458 28.125C39.5088 28.125 40.2083 28.8246 40.2083 29.6875C40.2083 30.5504 39.5088 31.25 38.6458 31.25C37.7829 31.25 37.0833 30.5504 37.0833 29.6875C37.0833 28.8246 37.7829 28.125 38.6458 28.125Z" fill="#E3181E"/>
<path d="M12.6042 28.125C13.4671 28.125 14.1667 28.8246 14.1667 29.6875C14.1667 30.5504 13.4671 31.25 12.6042 31.25C11.7412 31.25 11.0417 30.5504 11.0417 29.6875C11.0417 28.8246 11.7412 28.125 12.6042 28.125Z" fill="#E3181E"/>
</svg>
