<svg width="70" height="70" viewBox="0 0 70 70" fill="none" xmlns="http://www.w3.org/2000/svg">
<path opacity="0.5" d="M55.4166 64.1667V59.7917M14.5833 64.1667V59.7917" stroke="white" stroke-width="3" stroke-linecap="round"/>
<path d="M43.75 35V43.75" stroke="white" stroke-width="3" stroke-linecap="round"/>
<path d="M26.25 35V43.75" stroke="white" stroke-width="3" stroke-linecap="round"/>
<path d="M5.83331 29.1666C5.83331 18.1672 5.83331 12.6675 9.2504 9.2504C12.6675 5.83331 18.1672 5.83331 29.1666 5.83331H40.8333C51.8327 5.83331 57.3325 5.83331 60.7496 9.2504C64.1666 12.6675 64.1666 18.1672 64.1666 29.1666V35C64.1666 45.9994 64.1666 51.4991 60.7496 54.9162C57.3325 58.3333 51.8327 58.3333 40.8333 58.3333H29.1666C18.1672 58.3333 12.6675 58.3333 9.2504 54.9162C5.83331 51.4991 5.83331 45.9994 5.83331 35V29.1666Z" stroke="white" stroke-width="3"/>
<path opacity="0.5" d="M35 58.3333V23.3333M5.83331 23.3333H64.1666" stroke="white" stroke-width="3" stroke-linecap="round"/>
</svg>
