<svg width="70" height="70" viewBox="0 0 70 70" fill="none" xmlns="http://www.w3.org/2000/svg">
<path d="M5.83334 17.5C5.83334 13.4163 5.83334 11.3744 6.62809 9.81463C7.32716 8.44262 8.44265 7.32713 9.81466 6.62806C11.3744 5.83331 13.4163 5.83331 17.5 5.83331C21.5837 5.83331 23.6256 5.83331 25.1854 6.62806C26.5574 7.32713 27.6729 8.44262 28.3719 9.81463C29.1667 11.3744 29.1667 13.4163 29.1667 17.5V52.5C29.1667 56.5837 29.1667 58.6255 28.3719 60.1853C27.6729 61.5573 26.5574 62.6728 25.1854 63.3719C23.6256 64.1666 21.5837 64.1666 17.5 64.1666C13.4163 64.1666 11.3744 64.1666 9.81466 63.3719C8.44265 62.6728 7.32716 61.5573 6.62809 60.1853C5.83334 58.6255 5.83334 56.5837 5.83334 52.5V17.5Z" stroke="white" stroke-width="3"/>
<path opacity="0.5" d="M20.4167 55.4167H14.5833" stroke="white" stroke-width="3" stroke-linecap="round"/>
<path d="M38.8315 14.3763L32.5837 20.6241C30.8977 22.3101 30.0547 23.1531 29.6107 24.2251C29.1667 25.2971 29.1667 26.4893 29.1667 28.8736L29.1667 57.0395L55.3307 30.8755C58.2183 27.9878 59.6621 26.544 60.2031 24.8791C60.6789 23.4147 60.6789 21.8371 60.2031 20.3726C59.6621 18.7077 58.2183 17.2639 55.3307 14.3763C52.443 11.4887 50.9992 10.0449 49.3343 9.50391C47.8699 9.02807 46.2923 9.02807 44.8278 9.50391C43.1629 10.0449 41.7191 11.4887 38.8315 14.3763Z" stroke="white" stroke-width="3"/>
<path opacity="0.5" d="M17.5 64.1667L52.5 64.1667C56.5837 64.1667 58.6256 64.1667 60.1853 63.3719C61.5574 62.6728 62.6728 61.5573 63.3719 60.1853C64.1667 58.6256 64.1667 56.5837 64.1667 52.5C64.1667 48.4163 64.1667 46.3744 63.3719 44.8146C62.6728 43.4426 61.5574 42.3271 60.1853 41.6281C58.6256 40.8333 56.5837 40.8333 52.5 40.8333L45.2083 40.8333" stroke="white" stroke-width="3"/>
</svg>
