<svg width="51" height="50" viewBox="0 0 51 50" fill="none" xmlns="http://www.w3.org/2000/svg">
<path opacity="0.5" d="M12.625 18.75H20.9583" stroke="#E3181E" stroke-width="3" stroke-linecap="round" stroke-linejoin="round"/>
<path d="M43.5278 20.8334H38.1058C34.3885 20.8334 31.375 23.6316 31.375 27.0834C31.375 30.5352 34.3885 33.3334 38.1058 33.3334H43.5278C43.7014 33.3334 43.7882 33.3334 43.8615 33.3289C44.985 33.2605 45.8799 32.4295 45.9535 31.3863C45.9583 31.3182 45.9583 31.2376 45.9583 31.0764V23.0903C45.9583 22.9291 45.9583 22.8485 45.9535 22.7805C45.8799 21.7372 44.985 20.9062 43.8615 20.8378C43.7882 20.8334 43.7014 20.8334 43.5278 20.8334Z" stroke="#E3181E" stroke-width="3"/>
<path d="M43.8022 20.8333C43.6402 16.9327 43.1179 14.5411 41.4342 12.8574C38.9935 10.4166 35.0651 10.4166 27.2084 10.4166H20.9584C13.1016 10.4166 9.17324 10.4166 6.73246 12.8574C4.29169 15.2982 4.29169 19.2266 4.29169 27.0833C4.29169 34.94 4.29169 38.8684 6.73246 41.3092C9.17324 43.75 13.1016 43.75 20.9584 43.75H27.2084C35.0651 43.75 38.9935 43.75 41.4342 41.3092C43.1179 39.6255 43.6402 37.2339 43.8022 33.3333" stroke="#E3181E" stroke-width="3"/>
<path opacity="0.5" d="M12.625 10.4166L20.4073 5.25649C22.5988 3.80334 25.5678 3.80334 27.7594 5.25649L35.5417 10.4166" stroke="#E3181E" stroke-width="3" stroke-linecap="round"/>
<path opacity="0.5" d="M37.6063 27.0834H37.6251" stroke="#E3181E" stroke-width="3" stroke-linecap="round" stroke-linejoin="round"/>
</svg>
