<svg width="51" height="50" viewBox="0 0 51 50" fill="none" xmlns="http://www.w3.org/2000/svg">
<path opacity="0.5" d="M40.4584 45.8334V42.7084M11.2917 45.8334V42.7084" stroke="#E3181E" stroke-width="3" stroke-linecap="round"/>
<path d="M5.04169 20.8333C5.04169 12.9765 5.04169 9.04818 7.48246 6.6074C9.92324 4.16663 13.8516 4.16663 21.7084 4.16663H30.0417C37.8984 4.16663 41.8268 4.16663 44.2676 6.6074C46.7084 9.04818 46.7084 12.9766 46.7084 20.8333V25C46.7084 32.8567 46.7084 36.7851 44.2676 39.2258C41.8268 41.6666 37.8984 41.6666 30.0417 41.6666H21.7084C13.8516 41.6666 9.92324 41.6666 7.48246 39.2258C5.04169 36.7851 5.04169 32.8567 5.04169 25V20.8333Z" stroke="#E3181E" stroke-width="3"/>
<path d="M19.625 32.2916H32.125" stroke="#E3181E" stroke-width="3" stroke-linecap="round"/>
<path d="M19.625 13.5416H32.125" stroke="#E3181E" stroke-width="3" stroke-linecap="round"/>
<path opacity="0.4" d="M5.04169 22.9166H46.7084" stroke="#E3181E" stroke-width="3" stroke-linecap="round"/>
</svg>
