<svg width="51" height="50" viewBox="0 0 51 50" fill="none" xmlns="http://www.w3.org/2000/svg">
<path d="M42.4463 7.67863L43.507 6.61797V6.61797L42.4463 7.67863ZM42.4463 24.6361L43.507 25.6967L42.4463 24.6361ZM25.4889 7.67863L26.5495 8.73929L25.4889 7.67863ZM21.9055 20.952L20.8448 19.8913L20.8448 19.8913L21.9055 20.952ZM15.4609 27.3966L16.5216 28.4572L16.5216 28.4572L15.4609 27.3966ZM22.7284 34.664L21.6677 33.6034L21.6677 33.6034L22.7284 34.664ZM24.8818 32.5106L25.9425 33.5712L24.8818 32.5106ZM29.1735 28.219L28.1128 27.1583L28.1128 27.1583L29.1735 28.219ZM14.724 29.4972L13.2332 29.6628H13.2332L14.724 29.4972ZM15.1269 33.1232L13.6361 33.2889L13.6361 33.2889L15.1269 33.1232ZM17.0017 34.998L16.8361 36.4888H16.8361L17.0017 34.998ZM20.6278 35.4009L20.7934 33.9101H20.7934L20.6278 35.4009ZM15.6182 34.1453L16.6788 33.0846L16.6788 33.0846L15.6182 34.1453ZM15.9797 34.5068L14.919 35.5674L14.919 35.5674L15.9797 34.5068ZM22.3547 19.1512L20.9018 19.5243V19.5243L22.3547 19.1512ZM30.9737 27.7702L30.6006 29.2231H30.6006L30.9737 27.7702ZM22.9001 28.4408C22.3111 27.8582 21.3614 27.8634 20.7788 28.4524C20.1963 29.0414 20.2015 29.9912 20.7905 30.5737L22.9001 28.4408ZM41.3857 8.73929C45.4825 12.8362 45.4825 19.4785 41.3857 23.5754L43.507 25.6967C48.7754 20.4283 48.7754 11.8864 43.507 6.61797L41.3857 8.73929ZM43.507 6.61797C38.2385 1.34951 29.6967 1.34951 24.4282 6.61797L26.5495 8.73929C30.6464 4.64241 37.2888 4.64241 41.3857 8.73929L43.507 6.61797ZM20.8448 19.8913L14.4002 26.3359L16.5216 28.4572L22.9662 22.0126L20.8448 19.8913ZM23.789 35.7247L25.9425 33.5712L23.8212 31.4499L21.6677 33.6034L23.789 35.7247ZM25.9425 33.5712L30.2341 29.2796L28.1128 27.1583L23.8212 31.4499L25.9425 33.5712ZM13.2332 29.6628L13.6361 33.2889L16.6178 32.9576L16.2149 29.3315L13.2332 29.6628ZM16.8361 36.4888L20.4621 36.8917L20.7934 33.9101L17.1674 33.5072L16.8361 36.4888ZM14.5575 35.2059L14.919 35.5674L17.0403 33.4461L16.6788 33.0846L14.5575 35.2059ZM17.1674 33.5072C17.1193 33.5018 17.0745 33.4803 17.0403 33.4461L14.919 35.5674C15.4349 36.0833 16.111 36.4083 16.8361 36.4888L17.1674 33.5072ZM13.6361 33.2889C13.7167 34.014 14.0416 34.6901 14.5575 35.2059L16.6788 33.0846C16.6446 33.0504 16.6231 33.0056 16.6178 32.9576L13.6361 33.2889ZM21.6677 33.6034C21.438 33.8331 21.1163 33.9459 20.7934 33.9101L20.4621 36.8917C21.6908 37.0282 22.9149 36.5989 23.789 35.7247L21.6677 33.6034ZM14.4002 26.3359C13.5261 27.2101 13.0967 28.4342 13.2332 29.6628L16.2149 29.3315C16.179 29.0086 16.2918 28.687 16.5216 28.4572L14.4002 26.3359ZM23.8076 18.7781C22.9142 15.2992 23.8305 11.4583 26.5495 8.73929L24.4282 6.61797C20.9287 10.1175 19.7556 15.0606 20.9018 19.5243L23.8076 18.7781ZM41.3857 23.5754C38.6666 26.2944 34.8257 27.2108 31.3468 26.3174L30.6006 29.2231C35.0643 30.3694 40.0074 29.1963 43.507 25.6967L41.3857 23.5754ZM30.2341 29.2796C30.2746 29.2391 30.3982 29.1711 30.6006 29.2231L31.3468 26.3174C30.2683 26.0404 29.0075 26.2636 28.1128 27.1583L30.2341 29.2796ZM22.9662 22.0126C23.8604 21.1184 24.0847 19.8573 23.8076 18.7781L20.9018 19.5243C20.9537 19.7261 20.8858 19.8503 20.8448 19.8913L22.9662 22.0126ZM25.9367 31.4441L22.9001 28.4408L20.7905 30.5737L23.827 33.577L25.9367 31.4441Z" fill="#E3181E"/>
<path opacity="0.5" d="M32.411 17.7142C31.6408 16.944 31.6408 15.6953 32.411 14.9251L30.2896 12.8037C28.3479 14.7455 28.3479 17.8938 30.2896 19.8355L32.411 17.7142ZM35.2001 17.7142C34.4299 18.4844 33.1812 18.4844 32.411 17.7142L30.2896 19.8355C32.2314 21.7773 35.3797 21.7773 37.3214 19.8355L35.2001 17.7142ZM35.2001 14.9251C35.9703 15.6953 35.9703 16.944 35.2001 17.7142L37.3214 19.8355C39.2632 17.8938 39.2632 14.7455 37.3214 12.8037L35.2001 14.9251ZM37.3214 12.8037C35.3797 10.862 32.2314 10.862 30.2896 12.8037L32.411 14.9251C33.1812 14.1549 34.4299 14.1549 35.2001 14.9251L37.3214 12.8037Z" fill="#E3181E"/>
<path opacity="0.5" d="M45.9584 31.2353C45.8253 37.0563 45.2692 40.4562 42.9462 42.7793C39.8922 45.8333 34.9768 45.8333 25.146 45.8333C15.3152 45.8333 10.3998 45.8333 7.34572 42.7793C4.29169 39.7252 4.29169 34.8098 4.29169 24.979C4.29169 15.1482 4.29169 10.2328 7.34572 7.17878C9.66875 4.85575 13.0687 4.29972 18.8897 4.16663" stroke="#E3181E" stroke-width="3" stroke-linecap="round"/>
</svg>
