<svg width="51" height="50" viewBox="0 0 51 50" fill="none" xmlns="http://www.w3.org/2000/svg">
<path d="M38.7501 16.7486L39.7156 15.7831C41.3153 14.1835 43.9089 14.1835 45.5086 15.7831C47.1083 17.3828 47.1083 19.9764 45.5086 21.5761L44.5431 22.5416M38.7501 16.7486C38.7501 16.7486 38.8708 18.8003 40.6811 20.6106C42.4914 22.421 44.5431 22.5416 44.5431 22.5416M38.7501 16.7486L29.8738 25.6249C29.2726 26.2261 28.972 26.5268 28.7134 26.8582C28.4085 27.2492 28.147 27.6722 27.9337 28.1199C27.7528 28.4993 27.6184 28.9026 27.3495 29.7092L26.4887 32.2917L26.2102 33.1272M44.5431 22.5416L35.6668 31.4179C35.0656 32.0191 34.765 32.3197 34.4335 32.5783C34.0425 32.8832 33.6195 33.1447 33.1719 33.358C32.7924 33.5389 32.3891 33.6733 31.5825 33.9422L29 34.803L28.1645 35.0815M28.1645 35.0815L27.329 35.36C26.9321 35.4923 26.4944 35.389 26.1986 35.0931C25.9027 34.7973 25.7994 34.3596 25.9317 33.9627L26.2102 33.1272M28.1645 35.0815L26.2102 33.1272" stroke="#E3181E" stroke-width="3"/>
<path d="M17.5417 27.0834H22.75" stroke="#E3181E" stroke-width="3" stroke-linecap="round"/>
<path d="M17.5417 18.75H31.0834" stroke="#E3181E" stroke-width="3" stroke-linecap="round"/>
<path d="M17.5417 35.4166H20.6667" stroke="#E3181E" stroke-width="3" stroke-linecap="round"/>
<path opacity="0.5" d="M7.125 20.8333C7.125 12.9765 7.125 9.04818 9.56578 6.6074C12.0066 4.16663 15.9349 4.16663 23.7917 4.16663H27.9583C35.8151 4.16663 39.7434 4.16663 42.1842 6.6074C44.625 9.04818 44.625 12.9766 44.625 20.8333V29.1666C44.625 37.0234 44.625 40.9517 42.1842 43.3925C39.7434 45.8333 35.8151 45.8333 27.9583 45.8333H23.7917C15.9349 45.8333 12.0066 45.8333 9.56578 43.3925C7.125 40.9517 7.125 37.0234 7.125 29.1666V20.8333Z" stroke="#E3181E" stroke-width="3"/>
</svg>
