<svg width="70" height="70" viewBox="0 0 70 70" fill="none" xmlns="http://www.w3.org/2000/svg">
<path opacity="0.5" d="M55.4167 64.1666V62.7083M14.5833 64.1666V62.7083" stroke="white" stroke-width="3" stroke-linecap="round"/>
<path d="M35 61.25V5.83331" stroke="white" stroke-width="3" stroke-linecap="round"/>
<path opacity="0.5" d="M43.75 23.3333V29.1666" stroke="white" stroke-width="3" stroke-linecap="round"/>
<path d="M5.83333 29.1666C5.83333 18.1672 5.83333 12.6675 9.25042 9.2504C12.6675 5.83331 18.1672 5.83331 29.1667 5.83331H40.8333C51.8328 5.83331 57.3325 5.83331 60.7496 9.2504C64.1667 12.6675 64.1667 18.1672 64.1667 29.1666V37.9166C64.1667 48.9161 64.1667 54.4158 60.7496 57.8329C57.3325 61.25 51.8328 61.25 40.8333 61.25H29.1667C18.1672 61.25 12.6675 61.25 9.25042 57.8329C5.83333 54.4158 5.83333 48.9161 5.83333 37.9166V29.1666Z" stroke="white" stroke-width="3"/>
<path opacity="0.5" d="M5.83333 23.3333H35" stroke="white" stroke-width="3" stroke-linecap="round"/>
<path d="M5.83333 43.75H64.1667" stroke="white" stroke-width="3" stroke-linecap="round"/>
<path opacity="0.5" d="M43.75 52.5L49.5833 52.5" stroke="white" stroke-width="3" stroke-linecap="round"/>
<path opacity="0.5" d="M20.4167 52.5L26.25 52.5" stroke="white" stroke-width="3" stroke-linecap="round"/>
</svg>
