<svg width="51" height="50" viewBox="0 0 51 50" fill="none" xmlns="http://www.w3.org/2000/svg">
<ellipse cx="25.625" cy="27.0833" rx="6.25" ry="6.25" stroke="#E3181E" stroke-width="3"/>
<path opacity="0.5" d="M21.4583 41.6667H29.7917C35.6436 41.6667 38.5695 41.6667 40.6714 40.2623C41.5813 39.6543 42.3626 38.873 42.9706 37.9631C44.375 35.8612 44.375 32.9353 44.375 27.0834C44.375 21.2314 44.3747 18.3059 42.9703 16.2041C42.3623 15.2941 41.581 14.5129 40.6711 13.9049C38.5692 12.5005 35.6433 12.5005 29.7913 12.5005H21.458C15.6061 12.5005 12.6801 12.5005 10.5783 13.9049C9.66835 14.5129 8.88709 15.2941 8.2791 16.2041C6.87499 18.3055 6.87499 21.2301 6.87499 27.0795L6.87499 27.0834C6.87499 32.9353 6.87499 35.8612 8.27941 37.9631C8.8874 38.873 9.66866 39.6543 10.5786 40.2623C12.6804 41.6667 15.6064 41.6667 21.4583 41.6667Z" stroke="#E3181E" stroke-width="3"/>
<path d="M38.125 20.8333H37.0833" stroke="#E3181E" stroke-width="3" stroke-linecap="round"/>
<path opacity="0.5" d="M30.8333 7.29175H20.4167" stroke="#E3181E" stroke-width="3" stroke-linecap="round"/>
</svg>
