<svg width="51" height="50" viewBox="0 0 51 50" fill="none" xmlns="http://www.w3.org/2000/svg">
<path opacity="0.5" d="M28.1922 40.5114C27.6064 39.9256 26.6567 39.9256 26.0709 40.5114C25.4851 41.0972 25.4851 42.047 26.0709 42.6328L28.1922 40.5114ZM39.184 41.5721L40.2447 42.6328L39.184 41.5721ZM9.05286 11.4409L10.1135 12.5016L10.1135 12.5016L9.05286 11.4409ZM7.9922 24.5541C8.57799 25.1398 9.52774 25.1398 10.1135 24.5541C10.6993 23.9683 10.6993 23.0185 10.1135 22.4327L7.9922 24.5541ZM24.1185 8.42782L25.1791 9.48848C25.4604 9.20717 25.6185 8.82564 25.6185 8.42782C25.6185 8.02999 25.4604 7.64846 25.1791 7.36716L24.1185 8.42782ZM12.066 8.42782L11.0053 7.36716L11.0053 7.36716L12.066 8.42782ZM42.1972 26.5065L43.2578 25.4459C42.9765 25.1645 42.595 25.0065 42.1971 25.0065C41.7993 25.0065 41.4178 25.1645 41.1365 25.4459L42.1972 26.5065ZM42.1972 38.559L41.1365 37.4983L42.1972 38.559ZM18.0359 12.389C17.4501 12.9748 17.4501 13.9245 18.0359 14.5103C18.6217 15.0961 19.5715 15.0961 20.1572 14.5103L18.0359 12.389ZM36.1146 30.4677C35.5288 31.0535 35.5288 32.0032 36.1146 32.589C36.7004 33.1748 37.6502 33.1748 38.236 32.589L36.1146 30.4677ZM11.0053 7.36716L7.9922 10.3803L10.1135 12.5016L13.1266 9.48848L11.0053 7.36716ZM40.2447 42.6328L43.2578 39.6196L41.1365 37.4983L38.1234 40.5114L40.2447 42.6328ZM26.0709 42.6328C27.4613 44.0232 28.6086 45.1749 29.6382 45.9605C30.7025 46.7725 31.8154 47.3333 33.1578 47.3333V44.3333C32.7351 44.3333 32.2554 44.1839 31.458 43.5755C30.6259 42.9407 29.6426 41.9618 28.1922 40.5114L26.0709 42.6328ZM38.1234 40.5114C36.673 41.9618 35.6897 42.9407 34.8576 43.5755C34.0602 44.1839 33.5805 44.3333 33.1578 44.3333V47.3333C34.5002 47.3333 35.6131 46.7725 36.6774 45.9605C37.707 45.1749 38.8543 44.0232 40.2447 42.6328L38.1234 40.5114ZM7.9922 10.3803C6.60179 11.7707 5.45003 12.9179 4.66444 13.9476C3.85244 15.0118 3.29167 16.1248 3.29167 17.4672H6.29167C6.29167 17.0445 6.44111 16.5647 7.0495 15.7673C7.68431 14.9353 8.66314 13.952 10.1135 12.5016L7.9922 10.3803ZM10.1135 22.4327C8.66314 20.9824 7.68431 19.999 7.0495 19.167C6.44111 18.3696 6.29167 17.8899 6.29167 17.4672H3.29167C3.29167 18.8095 3.85244 19.9225 4.66444 20.9867C5.45003 22.0164 6.60179 23.1636 7.9922 24.5541L10.1135 22.4327ZM25.1791 7.36716C23.7887 5.97674 22.6414 4.82498 21.6118 4.03939C20.5475 3.22739 19.4346 2.66663 18.0922 2.66663V5.66663C18.5149 5.66663 18.9947 5.81606 19.7921 6.42446C20.6241 7.05926 21.6074 8.03809 23.0578 9.48848L25.1791 7.36716ZM13.1266 9.48848C14.577 8.0381 15.5604 7.05926 16.3924 6.42446C17.1898 5.81606 17.6695 5.66663 18.0922 5.66663V2.66663C16.7499 2.66663 15.6369 3.22739 14.5726 4.03939C13.543 4.82498 12.3957 5.97674 11.0053 7.36716L13.1266 9.48848ZM41.1365 27.5672C42.5869 29.0176 43.5657 30.0009 44.2005 30.8329C44.8089 31.6303 44.9583 32.1101 44.9583 32.5327H47.9583C47.9583 31.1904 47.3976 30.0774 46.5856 29.0132C45.8 27.9835 44.6482 26.8363 43.2578 25.4459L41.1365 27.5672ZM43.2578 39.6196C44.6482 38.2292 45.8 37.082 46.5856 36.0523C47.3976 34.9881 47.9583 33.8751 47.9583 32.5327H44.9583C44.9583 32.9554 44.8089 33.4352 44.2005 34.2326C43.5657 35.0646 42.5869 36.0479 41.1365 37.4983L43.2578 39.6196ZM23.0578 7.36716L18.0359 12.389L20.1572 14.5103L25.1791 9.48848L23.0578 7.36716ZM41.1365 25.4459L36.1146 30.4677L38.236 32.589L43.2578 27.5672L41.1365 25.4459Z" fill="#E3181E"/>
<path d="M9.37067 45.1629L11.0417 44.6059L16.2066 42.8842C17.8198 42.3465 18.6265 42.0776 19.3854 41.7159C20.2806 41.2893 21.1267 40.7663 21.9087 40.1564C22.5716 39.6394 23.1728 39.0382 24.3752 37.8357L42.1278 20.0832L44.0588 18.1522C47.2582 14.9528 47.2582 9.76555 44.0588 6.56616C40.8594 3.36678 35.6722 3.36678 32.4728 6.56616L30.5418 8.49716L12.7892 26.2497C11.5868 27.4522 10.9856 28.0534 10.4685 28.7163C9.85862 29.4983 9.3357 30.3444 8.90905 31.2396C8.54737 31.9985 8.2785 32.8051 7.74076 34.4183L6.01911 39.5833L5.46211 41.2543M9.37067 45.1629L7.69967 45.7199C6.9058 45.9845 6.03054 45.7779 5.43882 45.1861C4.8471 44.5944 4.64048 43.7192 4.90511 42.9253L5.46211 41.2543M9.37067 45.1629L5.46211 41.2543" stroke="#E3181E" stroke-width="3"/>
<path opacity="0.5" d="M30.5419 8.49707C30.5419 8.49707 30.7833 12.6004 34.4039 16.2211C38.0245 19.8417 42.1279 20.0831 42.1279 20.0831" stroke="#E3181E" stroke-width="3"/>
</svg>
