<svg width="51" height="50" viewBox="0 0 51 50" fill="none" xmlns="http://www.w3.org/2000/svg">
<path d="M30.8333 13.5416H37.0833M37.0833 13.5416H43.3333M37.0833 13.5416V19.7916M37.0833 13.5416V7.29163" stroke="#E3181E" stroke-width="3" stroke-linecap="round"/>
<path d="M5.83333 13.5417C5.83333 9.61334 5.83333 7.64915 7.05372 6.42876C8.27411 5.20837 10.2383 5.20837 14.1667 5.20837C18.095 5.20837 20.0592 5.20837 21.2796 6.42876C22.5 7.64915 22.5 9.61334 22.5 13.5417C22.5 17.4701 22.5 19.4343 21.2796 20.6547C20.0592 21.875 18.095 21.875 14.1667 21.875C10.2383 21.875 8.27411 21.875 7.05372 20.6547C5.83333 19.4343 5.83333 17.4701 5.83333 13.5417Z" stroke="#E3181E" stroke-width="3"/>
<path d="M28.75 36.4583C28.75 32.53 28.75 30.5658 29.9704 29.3454C31.1908 28.125 33.155 28.125 37.0833 28.125C41.0117 28.125 42.9759 28.125 44.1963 29.3454C45.4167 30.5658 45.4167 32.53 45.4167 36.4583C45.4167 40.3867 45.4167 42.3509 44.1963 43.5713C42.9759 44.7917 41.0117 44.7917 37.0833 44.7917C33.155 44.7917 31.1908 44.7917 29.9704 43.5713C28.75 42.3509 28.75 40.3867 28.75 36.4583Z" stroke="#E3181E" stroke-width="3"/>
<path opacity="0.5" d="M5.83333 36.4583C5.83333 32.53 5.83333 30.5658 7.05372 29.3454C8.27411 28.125 10.2383 28.125 14.1667 28.125C18.095 28.125 20.0592 28.125 21.2796 29.3454C22.5 30.5658 22.5 32.53 22.5 36.4583C22.5 40.3867 22.5 42.3509 21.2796 43.5713C20.0592 44.7917 18.095 44.7917 14.1667 44.7917C10.2383 44.7917 8.27411 44.7917 7.05372 43.5713C5.83333 42.3509 5.83333 40.3867 5.83333 36.4583Z" stroke="#E3181E" stroke-width="3"/>
</svg>
