<svg width="51" height="50" viewBox="0 0 51 50" fill="none" xmlns="http://www.w3.org/2000/svg">
<path opacity="0.5" d="M27.9583 45.8322C36.4064 45.817 40.8302 45.6096 43.6573 42.7824C46.7083 39.7315 46.7083 34.821 46.7083 25.0001C46.7083 15.1792 46.7083 10.2687 43.6573 7.21772C40.6064 4.16675 35.6959 4.16675 25.875 4.16675C16.054 4.16675 11.1436 4.16675 8.09261 7.21772C5.26546 10.0449 5.05806 14.4687 5.04285 22.9167" stroke="#E3181E" stroke-width="3" stroke-linecap="round"/>
<path d="M25.875 24.9999L36.2917 14.5833M36.2917 14.5833H28.4792M36.2917 14.5833V22.3958" stroke="#E3181E" stroke-width="3" stroke-linecap="round" stroke-linejoin="round"/>
<path d="M5.04169 37.5001C5.04169 33.5717 5.04169 31.6075 6.26208 30.3871C7.48246 29.1667 9.44665 29.1667 13.375 29.1667C17.3034 29.1667 19.2676 29.1667 20.488 30.3871C21.7084 31.6075 21.7084 33.5717 21.7084 37.5001C21.7084 41.4285 21.7084 43.3926 20.488 44.613C19.2676 45.8334 17.3034 45.8334 13.375 45.8334C9.44665 45.8334 7.48246 45.8334 6.26208 44.613C5.04169 43.3926 5.04169 41.4285 5.04169 37.5001Z" stroke="#E3181E" stroke-width="3"/>
</svg>
